<svg version="1" xmlns="http://www.w3.org/2000/svg" width="933.333" height="933.333" viewBox="0 0 700.000000 700.000000"><path d="M342.3 40.4c-17.2 4.2-31.5 18.5-35.6 35.7-1 4.3-1.5 4.9-3.2 4.4-12-3.8-20.7-4.4-30-2-17.4 4.6-31.7 19.7-35.4 37.3-.6 2.9-1.1 11.5-1.1 19.2v13.8l-5.7-2c-4.8-1.6-7.6-1.9-16.3-1.6-9.7.3-11.1.7-18.2 4.1-13.4 6.5-23.8 19.5-26.8 33.3-.7 3.3-1 55.2-.7 164.9l.3 160 2.2 9.5c3.7 16.2 8.3 28.9 15.8 44 22.7 45.2 65.9 80.4 116.6 95 18.1 5.2 31.1 6 64.1 3.9 17.3-1 28.4-3.1 42.8-7.9 10-3.4 33.6-15.3 42.4-21.4 39-27.3 65-66.7 74.6-113.6l2.4-11.5v-242l-2.9-5.3c-10-18-35.1-23.8-52.7-12.1l-4.4 2.9-.5-66.8-.5-66.7-2.7-6.8c-5.7-14.2-16.1-24.7-28.9-29.2-10-3.6-24.1-3.6-33 0l-3.7 1.4-1.2-4.6c-3.3-13.4-13.3-25.9-25.4-31.8-11-5.4-21.4-6.7-32.3-4.1zm21.5 30.8c2.5 1.7 4.9 4.5 6.6 7.9l2.6 5.3v115.3c0 125-.3 117.9 5.4 123.2 3.3 3.1 11 4 15.4 1.7 1.7-.9 4.1-3 5.4-4.8l2.3-3.3.5-98.5.5-98.5 2.7-4.7c3.6-6 11.7-10.3 17.8-9.5 6.7.9 12.5 5 15.4 10.9l2.6 5.2v157.3l-2.9 6.4c-6.4 14.2-6.4 14-6.8 65l-.4 46.5-10.2 5.9c-23.2 13.5-44 32.2-56.4 50.7-11.1 16.5-16.7 32.5-17.9 50.2-.4 7.6-.2 9.7 1.3 12.6 3.9 7.4 13.2 10.2 20 6 5.1-3.1 6.5-6.2 7.4-16.2 1.1-11.1 3-18.1 7.6-27.3 10.2-20.5 31.5-40 60.5-55.5 7-3.7 13-7.7 14.2-9.3 2.1-2.8 2.1-4.1 2.6-55.5.5-49.2.6-53 2.4-57.2 4.9-11.3 11.6-19.5 21.8-26.5 6.1-4.2 8.8-5.5 11.6-5.5 7.3 0 6.7-9.1 7 104.2.4 126.8 0 134.5-8.8 159.3-16.7 46.9-56.1 83.4-103.2 95.4-14.8 3.8-57.1 5.4-70 2.6-15.8-3.3-38.3-12.9-53.4-22.7-40.3-26.1-65.5-67.3-69.4-113.5-.8-8.7-1-59.3-.8-159.3l.3-146.5 2.5-4.5c1.4-2.4 4.4-5.8 6.8-7.4 3.6-2.6 5.3-3.1 10.2-3.1 4.9 0 6.6.5 10.2 3.1 2.4 1.6 5.4 5 6.8 7.4l2.5 4.5.5 76.2.5 76.1 2.5 2.7c6.9 7.4 15.8 7.3 22.2-.3l2.5-3 .7-109.8.7-109.8 2.2-4c1.2-2.1 3.9-5.3 6-7 3.1-2.5 4.8-3.1 10-3.3 5.1-.3 6.9 0 10.2 1.9 4.5 2.6 8 7.3 9.5 12.7.6 2.3 1 38.1 1 98.9 0 103.1-.3 97.8 5.4 103.1 3.3 3.1 11 4 15.4 1.7 1.7-.9 4.1-3 5.4-4.8l2.3-3.3.5-117.5c.5-106.9.6-117.8 2.2-120.5 5.5-10.1 18.2-13.5 27.6-7.3z"/></svg>