<svg height='300px' width='300px'  fill="#000000" xmlns:dc="http://purl.org/dc/elements/1.1/" xmlns:cc="http://creativecommons.org/ns#" xmlns:rdf="http://www.w3.org/1999/02/22-rdf-syntax-ns#" xmlns:svg="http://www.w3.org/2000/svg" xmlns="http://www.w3.org/2000/svg" xmlns:sodipodi="http://sodipodi.sourceforge.net/DTD/sodipodi-0.dtd" xmlns:inkscape="http://www.inkscape.org/namespaces/inkscape" viewBox="0 0 8.4666665 8.4666669" version="1.1" x="0px" y="0px"><g transform="translate(0,-288.53332)"><path style="color:#000000;font-style:normal;font-variant:normal;font-weight:normal;font-stretch:normal;font-size:medium;line-height:normal;font-family:sans-serif;text-indent:0;text-align:start;text-decoration:none;text-decoration-line:none;text-decoration-style:solid;text-decoration-color:#000000;letter-spacing:normal;word-spacing:normal;text-transform:none;direction:ltr;block-progression:tb;writing-mode:lr-tb;baseline-shift:baseline;text-anchor:start;white-space:normal;clip-rule:nonzero;display:inline;overflow:visible;visibility:visible;opacity:1;isolation:auto;mix-blend-mode:normal;color-interpolation:sRGB;color-interpolation-filters:linearRGB;solid-color:#000000;solid-opacity:1;fill:#000000;fill-opacity:1;fill-rule:nonzero;stroke:none;stroke-width:0.26458335;stroke-linecap:butt;stroke-linejoin:round;stroke-miterlimit:4;stroke-dasharray:none;stroke-dashoffset:0;stroke-opacity:1;color-rendering:auto;image-rendering:auto;shape-rendering:auto;text-rendering:auto;enable-background:accumulate" d="m 3.0429688,290.38477 a 0.1323049,0.1323049 0 0 0 -0.1328126,0.13281 l 0,0.66211 0.265625,0 0,-0.5293 4.4980469,0 c -4.7e-6,0.16958 -9.94e-5,3.52727 0,5.29102 0,0.29545 -0.23385,0.52929 -0.5292969,0.52929 l -2.6464843,0 0,0.26368 2.6464843,0 c 0.4374492,0 0.7929688,-0.35552 0.7929688,-0.79297 -1.019e-4,-1.80799 0,-5.42383 0,-5.42383 a 0.1323049,0.1323049 0 0 0 -0.1328125,-0.13281 l -4.7617187,0 z"></path><path style="color:#000000;font-style:normal;font-variant:normal;font-weight:normal;font-stretch:normal;font-size:medium;line-height:normal;font-family:sans-serif;text-indent:0;text-align:start;text-decoration:none;text-decoration-line:none;text-decoration-style:solid;text-decoration-color:#000000;letter-spacing:normal;word-spacing:normal;text-transform:none;direction:ltr;block-progression:tb;writing-mode:lr-tb;baseline-shift:baseline;text-anchor:start;white-space:normal;clip-rule:nonzero;display:inline;overflow:visible;visibility:visible;opacity:1;isolation:auto;mix-blend-mode:normal;color-interpolation:sRGB;color-interpolation-filters:linearRGB;solid-color:#000000;solid-opacity:1;fill:#000000;fill-opacity:1;fill-rule:evenodd;stroke:none;stroke-width:0.26458332px;stroke-linecap:butt;stroke-linejoin:miter;stroke-miterlimit:4;stroke-dasharray:none;stroke-dashoffset:0;stroke-opacity:1;color-rendering:auto;image-rendering:auto;shape-rendering:auto;text-rendering:auto;enable-background:accumulate" d="m 4.4980469,295.14844 0,0.26367 3.3515625,0 0,-0.26367 -3.3515625,0 z"></path><path style="color:#000000;font-style:normal;font-variant:normal;font-weight:normal;font-stretch:normal;font-size:medium;line-height:normal;font-family:sans-serif;text-indent:0;text-align:start;text-decoration:none;text-decoration-line:none;text-decoration-style:solid;text-decoration-color:#000000;letter-spacing:normal;word-spacing:normal;text-transform:none;direction:ltr;block-progression:tb;writing-mode:lr-tb;baseline-shift:baseline;text-anchor:start;white-space:normal;clip-rule:nonzero;display:inline;overflow:visible;visibility:visible;opacity:1;isolation:auto;mix-blend-mode:normal;color-interpolation:sRGB;color-interpolation-filters:linearRGB;solid-color:#000000;solid-opacity:1;fill:#000000;fill-opacity:1;fill-rule:evenodd;stroke:none;stroke-width:0.26458329;stroke-linecap:round;stroke-linejoin:round;stroke-miterlimit:4;stroke-dasharray:none;stroke-dashoffset:0;stroke-opacity:1;color-rendering:auto;image-rendering:auto;shape-rendering:auto;text-rendering:auto;enable-background:accumulate" d="m 1.2363281,291.44336 a 0.13230487,0.13230487 0 0 0 -0.1328125,0.13281 l 0,0.61328 L 0.55273438,293 a 0.13230487,0.13230487 0 0 0 -0.0214844,0.0742 l -0.001953,3.5293 a 0.13230487,0.13230487 0 0 0 0.1328125,0.13086 l 3.43750002,0 a 0.13230487,0.13230487 0 0 0 0.1328125,-0.13282 l 0,-3.51562 a 0.13230487,0.13230487 0 0 0 -0.021484,-0.0742 l -0.5507813,-0.82227 0,-0.61328 a 0.13230487,0.13230487 0 0 0 -0.1308593,-0.13281 l -2.2929688,0 z m 0.1308594,0.26562 2.0292969,0 0,0.51954 a 0.13230487,0.13230487 0 0 0 0.021484,0.0742 l 0.5507812,0.82227 0,3.34375 -3.17578125,0.002 0.001953,-3.35742 0.55078122,-0.81055 a 0.13230487,0.13230487 0 0 0 0.021484,-0.0742 l 0,-0.51954 z"></path><path style="color:#000000;font-style:normal;font-variant:normal;font-weight:normal;font-stretch:normal;font-size:medium;line-height:normal;font-family:sans-serif;text-indent:0;text-align:start;text-decoration:none;text-decoration-line:none;text-decoration-style:solid;text-decoration-color:#000000;letter-spacing:normal;word-spacing:normal;text-transform:none;direction:ltr;block-progression:tb;writing-mode:lr-tb;baseline-shift:baseline;text-anchor:start;white-space:normal;clip-rule:nonzero;display:inline;overflow:visible;visibility:visible;opacity:1;isolation:auto;mix-blend-mode:normal;color-interpolation:sRGB;color-interpolation-filters:linearRGB;solid-color:#000000;solid-opacity:1;fill:#000000;fill-opacity:1;fill-rule:nonzero;stroke:none;stroke-width:0.26458332;stroke-linecap:round;stroke-linejoin:round;stroke-miterlimit:4;stroke-dasharray:none;stroke-dashoffset:0;stroke-opacity:1;color-rendering:auto;image-rendering:auto;shape-rendering:auto;text-rendering:auto;enable-background:accumulate" d="m 2.9003906,294.22266 a 0.13230489,0.13230489 0 0 0 -0.1035156,0.0625 c 0,0 -0.068482,0.11407 -0.1367188,0.24414 -0.034118,0.065 -0.068471,0.13442 -0.095703,0.19922 -0.027232,0.0648 -0.050781,0.11547 -0.050781,0.19336 0,0.20867 0.1890894,0.35742 0.3964843,0.35742 0.207404,0 0.3964844,-0.14875 0.3964844,-0.35742 0,-0.0779 -0.023548,-0.12856 -0.050781,-0.19336 -0.027234,-0.0648 -0.061583,-0.13419 -0.095703,-0.19922 -0.068241,-0.13007 -0.1367187,-0.24414 -0.1367187,-0.24414 a 0.13230489,0.13230489 0 0 0 -0.1230469,-0.0625 z m 0.00977,0.40234 c 0.00754,0.014 0.00799,0.0128 0.015625,0.0273 0.032027,0.0611 0.06356,0.12449 0.085938,0.17774 0.022377,0.0532 0.03125,0.10706 0.03125,0.0918 0,0.0419 -0.047945,0.0937 -0.1328126,0.0937 -0.084845,0 -0.1328125,-0.0519 -0.1328124,-0.0937 0,0.0153 0.00887,-0.0386 0.03125,-0.0918 0.022376,-0.0532 0.053912,-0.11669 0.085937,-0.17774 0.00764,-0.0146 0.00808,-0.0133 0.015625,-0.0273 z"></path><path style="color:#000000;font-style:normal;font-variant:normal;font-weight:normal;font-stretch:normal;font-size:medium;line-height:normal;font-family:sans-serif;text-indent:0;text-align:start;text-decoration:none;text-decoration-line:none;text-decoration-style:solid;text-decoration-color:#000000;letter-spacing:normal;word-spacing:normal;text-transform:none;direction:ltr;block-progression:tb;writing-mode:lr-tb;baseline-shift:baseline;text-anchor:start;white-space:normal;clip-rule:nonzero;display:inline;overflow:visible;visibility:visible;opacity:1;isolation:auto;mix-blend-mode:normal;color-interpolation:sRGB;color-interpolation-filters:linearRGB;solid-color:#000000;solid-opacity:1;fill:#000000;fill-opacity:1;fill-rule:evenodd;stroke:none;stroke-width:0.26458329;stroke-linecap:round;stroke-linejoin:round;stroke-miterlimit:4;stroke-dasharray:none;stroke-dashoffset:0;stroke-opacity:1;color-rendering:auto;image-rendering:auto;shape-rendering:auto;text-rendering:auto;enable-background:accumulate" d="m 1.2460938,292.16992 a 0.13230487,0.13230487 0 0 0 -0.1015626,0.20313 l 0.5097657,0.82812 0,3.33594 a 0.13230487,0.13230487 0 1 0 0.2636719,0 l 0,-3.37305 a 0.13230487,0.13230487 0 0 0 -0.019531,-0.0703 l -0.5292969,-0.85937 a 0.13230487,0.13230487 0 0 0 -0.1230468,-0.0645 z"></path><path style="color:#000000;font-style:normal;font-variant:normal;font-weight:normal;font-stretch:normal;font-size:medium;line-height:normal;font-family:sans-serif;text-indent:0;text-align:start;text-decoration:none;text-decoration-line:none;text-decoration-style:solid;text-decoration-color:#000000;letter-spacing:normal;word-spacing:normal;text-transform:none;direction:ltr;block-progression:tb;writing-mode:lr-tb;baseline-shift:baseline;text-anchor:start;white-space:normal;clip-rule:nonzero;display:inline;overflow:visible;visibility:visible;opacity:1;isolation:auto;mix-blend-mode:normal;color-interpolation:sRGB;color-interpolation-filters:linearRGB;solid-color:#000000;solid-opacity:1;fill:#000000;fill-opacity:1;fill-rule:evenodd;stroke:none;stroke-width:0.26458329;stroke-linecap:butt;stroke-linejoin:round;stroke-miterlimit:4;stroke-dasharray:none;stroke-dashoffset:0;stroke-opacity:1;color-rendering:auto;image-rendering:auto;shape-rendering:auto;text-rendering:auto;enable-background:accumulate" d="m 1.0585938,293.03125 0,0.26367 3.0429687,0 0,-0.26367 -3.0429687,0 z"></path><path style="color:#000000;font-style:normal;font-variant:normal;font-weight:normal;font-stretch:normal;font-size:medium;line-height:normal;font-family:sans-serif;text-indent:0;text-align:start;text-decoration:none;text-decoration-line:none;text-decoration-style:solid;text-decoration-color:#000000;letter-spacing:normal;word-spacing:normal;text-transform:none;direction:ltr;block-progression:tb;writing-mode:lr-tb;baseline-shift:baseline;text-anchor:start;white-space:normal;clip-rule:nonzero;display:inline;overflow:visible;visibility:visible;opacity:1;isolation:auto;mix-blend-mode:normal;color-interpolation:sRGB;color-interpolation-filters:linearRGB;solid-color:#000000;solid-opacity:1;fill:#000000;fill-opacity:1;fill-rule:evenodd;stroke:none;stroke-width:0.26458329;stroke-linecap:butt;stroke-linejoin:round;stroke-miterlimit:4;stroke-dasharray:none;stroke-dashoffset:0;stroke-opacity:1;color-rendering:auto;image-rendering:auto;shape-rendering:auto;text-rendering:auto;enable-background:accumulate" d="m 1.7207031,292.10547 0,0.26367 1.8515625,0 0,-0.26367 -1.8515625,0 z"></path><path d="m 4.9950952,290.4293 c -0.1125989,0.12443 0.062442,0.29946 0.1868767,0.18687 l 1.6551555,-1.49698 c 0.3208947,0.37939 0.488216,0.87249 0.4470731,1.37129 -0.015169,0.17646 0.2498335,0.1985 0.2640197,0.022 0.051058,-0.61887 -0.1686889,-1.22895 -0.6018695,-1.67389 -0.04943,-0.0512 -0.1305411,-0.0542 -0.1835492,-0.007 l -1.7577288,1.58743 c -0.00337,0.003 -0.00684,0.006 -0.00997,0.01 z" style="color:#000000;font-style:normal;font-variant:normal;font-weight:normal;font-stretch:normal;font-size:medium;line-height:normal;font-family:sans-serif;text-indent:0;text-align:start;text-decoration:none;text-decoration-line:none;text-decoration-style:solid;text-decoration-color:#000000;letter-spacing:normal;word-spacing:normal;text-transform:none;direction:ltr;block-progression:tb;writing-mode:lr-tb;baseline-shift:baseline;text-anchor:start;white-space:normal;clip-rule:nonzero;display:inline;overflow:visible;visibility:visible;opacity:1;isolation:auto;mix-blend-mode:normal;color-interpolation:sRGB;color-interpolation-filters:linearRGB;solid-color:#000000;solid-opacity:1;fill:#000000;fill-opacity:1;fill-rule:nonzero;stroke:none;stroke-width:0.54945004;stroke-linecap:round;stroke-linejoin:round;stroke-miterlimit:4;stroke-dasharray:none;stroke-dashoffset:0;stroke-opacity:1;color-rendering:auto;image-rendering:auto;shape-rendering:auto;text-rendering:auto;enable-background:accumulate"></path><path d="m 6.4561942,289.16643 a 0.13230658,0.13230319 0 0 0 -0.00193,0.18687 c 0.2816008,0.29871 0.4216236,0.70371 0.3850601,1.1126 a 0.13230658,0.13230319 0 1 0 0.26336,0.0239 c 0.043291,-0.4841 -0.1228124,-0.96444 -0.4562223,-1.31809 a 0.13230658,0.13230319 0 0 0 -0.190209,-0.005 z" style="color:#000000;font-style:normal;font-variant:normal;font-weight:normal;font-stretch:normal;font-size:medium;line-height:normal;font-family:sans-serif;text-indent:0;text-align:start;text-decoration:none;text-decoration-line:none;text-decoration-style:solid;text-decoration-color:#000000;letter-spacing:normal;word-spacing:normal;text-transform:none;direction:ltr;block-progression:tb;writing-mode:lr-tb;baseline-shift:baseline;text-anchor:start;white-space:normal;clip-rule:nonzero;display:inline;overflow:visible;visibility:visible;opacity:1;isolation:auto;mix-blend-mode:normal;color-interpolation:sRGB;color-interpolation-filters:linearRGB;solid-color:#000000;solid-opacity:1;fill:#000000;fill-opacity:1;fill-rule:nonzero;stroke:none;stroke-width:0.54945004;stroke-linecap:round;stroke-linejoin:round;stroke-miterlimit:4;stroke-dasharray:none;stroke-dashoffset:0;stroke-opacity:1;color-rendering:auto;image-rendering:auto;shape-rendering:auto;text-rendering:auto;enable-background:accumulate"></path><path style="color:#000000;font-style:normal;font-variant:normal;font-weight:normal;font-stretch:normal;font-size:medium;line-height:normal;font-family:sans-serif;text-indent:0;text-align:start;text-decoration:none;text-decoration-line:none;text-decoration-style:solid;text-decoration-color:#000000;letter-spacing:normal;word-spacing:normal;text-transform:none;direction:ltr;block-progression:tb;writing-mode:lr-tb;baseline-shift:baseline;text-anchor:start;white-space:normal;clip-rule:nonzero;display:inline;overflow:visible;visibility:visible;opacity:1;isolation:auto;mix-blend-mode:normal;color-interpolation:sRGB;color-interpolation-filters:linearRGB;solid-color:#000000;solid-opacity:1;fill:#000000;fill-opacity:1;fill-rule:evenodd;stroke:none;stroke-width:0.26458332;stroke-linecap:round;stroke-linejoin:round;stroke-miterlimit:4;stroke-dasharray:none;stroke-dashoffset:0;stroke-opacity:1;color-rendering:auto;image-rendering:auto;shape-rendering:auto;text-rendering:auto;enable-background:accumulate" d="m 6.0703125,289.92188 a 0.13230489,0.13230489 0 0 0 -0.078125,0.0391 l -0.0625,0.0625 a 0.13258252,0.13258252 0 1 0 0.1875,0.1875 l 0.0625,-0.0625 a 0.13230489,0.13230489 0 0 0 -0.109375,-0.22656 z"></path><path style="color:#000000;font-style:normal;font-variant:normal;font-weight:normal;font-stretch:normal;font-size:medium;line-height:normal;font-family:sans-serif;text-indent:0;text-align:start;text-decoration:none;text-decoration-line:none;text-decoration-style:solid;text-decoration-color:#000000;letter-spacing:normal;word-spacing:normal;text-transform:none;direction:ltr;block-progression:tb;writing-mode:lr-tb;baseline-shift:baseline;text-anchor:start;white-space:normal;clip-rule:nonzero;display:inline;overflow:visible;visibility:visible;opacity:1;isolation:auto;mix-blend-mode:normal;color-interpolation:sRGB;color-interpolation-filters:linearRGB;solid-color:#000000;solid-opacity:1;fill:#000000;fill-opacity:1;fill-rule:evenodd;stroke:none;stroke-width:0.26458332;stroke-linecap:round;stroke-linejoin:round;stroke-miterlimit:4;stroke-dasharray:none;stroke-dashoffset:0;stroke-opacity:1;color-rendering:auto;image-rendering:auto;shape-rendering:auto;text-rendering:auto;enable-background:accumulate" d="m 6.4824219,289.76953 a 0.13230489,0.13230489 0 0 0 -0.091797,0.22852 l 0.0625,0.0625 a 0.13258252,0.13258252 0 1 0 0.1875,-0.1875 l -0.0625,-0.0625 a 0.13230489,0.13230489 0 0 0 -0.095703,-0.041 z"></path><path style="color:#000000;font-style:normal;font-variant:normal;font-weight:normal;font-stretch:normal;font-size:medium;line-height:normal;font-family:sans-serif;text-indent:0;text-align:start;text-decoration:none;text-decoration-line:none;text-decoration-style:solid;text-decoration-color:#000000;letter-spacing:normal;word-spacing:normal;text-transform:none;direction:ltr;block-progression:tb;writing-mode:lr-tb;baseline-shift:baseline;text-anchor:start;white-space:normal;clip-rule:nonzero;display:inline;overflow:visible;visibility:visible;opacity:1;isolation:auto;mix-blend-mode:normal;color-interpolation:sRGB;color-interpolation-filters:linearRGB;solid-color:#000000;solid-opacity:1;fill:#000000;fill-opacity:1;fill-rule:evenodd;stroke:none;stroke-width:0.26458332;stroke-linecap:round;stroke-linejoin:round;stroke-miterlimit:4;stroke-dasharray:none;stroke-dashoffset:0;stroke-opacity:1;color-rendering:auto;image-rendering:auto;shape-rendering:auto;text-rendering:auto;enable-background:accumulate" d="m 6.2753906,290.24219 a 0.13230489,0.13230489 0 0 0 -0.09375,0.22851 l 0.0625,0.0605 a 0.13230489,0.13230489 0 1 0 0.1875,-0.18555 l -0.0625,-0.0625 a 0.13230489,0.13230489 0 0 0 -0.09375,-0.041 z"></path><path style="color:#000000;font-style:normal;font-variant:normal;font-weight:normal;font-stretch:normal;font-size:medium;line-height:normal;font-family:sans-serif;text-indent:0;text-align:start;text-decoration:none;text-decoration-line:none;text-decoration-style:solid;text-decoration-color:#000000;letter-spacing:normal;word-spacing:normal;text-transform:none;direction:ltr;block-progression:tb;writing-mode:lr-tb;baseline-shift:baseline;text-anchor:start;white-space:normal;clip-rule:nonzero;display:inline;overflow:visible;visibility:visible;opacity:1;isolation:auto;mix-blend-mode:normal;color-interpolation:sRGB;color-interpolation-filters:linearRGB;solid-color:#000000;solid-opacity:1;fill:#000000;fill-opacity:1;fill-rule:evenodd;stroke:none;stroke-width:0.26458332;stroke-linecap:butt;stroke-linejoin:miter;stroke-miterlimit:4;stroke-dasharray:none;stroke-dashoffset:0;stroke-opacity:1;color-rendering:auto;image-rendering:auto;shape-rendering:auto;text-rendering:auto;enable-background:accumulate" d="m 4.15625,289.46094 c -0.1346034,0.0558 -0.2203336,0.16722 -0.2773438,0.27929 -0.05701,0.11208 -0.091375,0.23122 -0.1191406,0.33008 -0.048245,0.17181 -0.054687,0.24686 -0.054687,0.44727 l 0.2636719,0 c 0,-0.19646 8.519e-4,-0.21306 0.046875,-0.37696 0.027296,-0.0972 0.058599,-0.20063 0.099609,-0.28124 0.041011,-0.0806 0.087827,-0.1316 0.1425781,-0.1543 0.012169,-0.005 0.1314733,0.003 0.2324219,0.0391 0.1009486,0.0364 0.1835937,0.082 0.1835937,0.082 l 0.0625,-0.11719 0.0625,0.11719 c 0,0 0.084593,-0.0457 0.1855469,-0.082 0.1009542,-0.0364 0.2202428,-0.0441 0.2324219,-0.0391 0.05477,0.0227 0.1015672,0.0737 0.1425781,0.1543 0.041011,0.0806 0.070361,0.18405 0.097656,0.28124 l 0.2558594,-0.0703 c -0.027766,-0.0989 -0.06213,-0.21801 -0.1191406,-0.33008 -0.05701,-0.11206 -0.1408064,-0.22347 -0.2753906,-0.27929 -0.1555551,-0.0645 -0.3015064,-0.009 -0.4238282,0.0351 -0.087633,0.0316 -0.1226419,0.0504 -0.1582031,0.0684 -0.03569,-0.018 -0.068875,-0.0369 -0.15625,-0.0684 -0.122325,-0.044 -0.2682634,-0.0997 -0.4238281,-0.0351 z"></path><path style="color:#000000;font-style:normal;font-variant:normal;font-weight:normal;font-stretch:normal;font-size:medium;line-height:normal;font-family:sans-serif;text-indent:0;text-align:start;text-decoration:none;text-decoration-line:none;text-decoration-style:solid;text-decoration-color:#000000;letter-spacing:normal;word-spacing:normal;text-transform:none;direction:ltr;block-progression:tb;writing-mode:lr-tb;baseline-shift:baseline;text-anchor:start;white-space:normal;clip-rule:nonzero;display:inline;overflow:visible;visibility:visible;opacity:1;isolation:auto;mix-blend-mode:normal;color-interpolation:sRGB;color-interpolation-filters:linearRGB;solid-color:#000000;solid-opacity:1;fill:#000000;fill-opacity:1;fill-rule:evenodd;stroke:none;stroke-width:0.26458332;stroke-linecap:round;stroke-linejoin:round;stroke-miterlimit:4;stroke-dasharray:none;stroke-dashoffset:0;stroke-opacity:1;color-rendering:auto;image-rendering:auto;shape-rendering:auto;text-rendering:auto;enable-background:accumulate" d="m 4.8183594,289.06055 a 0.13230489,0.13230489 0 0 0 -0.109375,0.0781 c 0,0 -0.092123,0.18169 -0.1210938,0.32617 -0.028528,0.14227 -0.013672,0.3418 -0.013672,0.3418 a 0.13230489,0.13230489 0 1 0 0.2636718,-0.01 c 0,0 -0.00233,-0.21896 0.00977,-0.2793 C 4.8602038,289.455 4.9492188,289.25 4.9492188,289.25 a 0.13230489,0.13230489 0 0 0 -0.1308594,-0.18945 z"></path></g></svg>