<svg height="300" width="300" fill="#fff" xmlns="http://www.w3.org/2000/svg" viewBox="0 0 8.467 8.467"><g color="#fff" font-weight="400" font-family="sans-serif"><path style="line-height:normal;text-indent:0;text-align:start;text-decoration-line:none;text-decoration-style:solid;text-decoration-color:#fff;text-transform:none;block-progression:tb;white-space:normal;isolation:auto;mix-blend-mode:normal;solid-color:#fff;solid-opacity:1" d="M3.043 1.851a.132.132 0 00-.133.133v.662h.266v-.529h4.498v5.291c0 .296-.234.53-.53.53H4.499V8.2h2.647a.794.794 0 00.793-.793V1.984a.132.132 0 00-.133-.133H3.043z" overflow="visible"/><path style="line-height:normal;text-indent:0;text-align:start;text-decoration-line:none;text-decoration-style:solid;text-decoration-color:#fff;text-transform:none;block-progression:tb;white-space:normal;isolation:auto;mix-blend-mode:normal;solid-color:#fff;solid-opacity:1" d="M4.498 6.615v.264H7.85v-.264H4.498zM1.236 2.91a.132.132 0 00-.132.133v.613l-.551.81a.132.132 0 00-.022.075L.53 8.07a.132.132 0 00.133.13H4.1a.132.132 0 00.132-.133V4.553a.132.132 0 00-.021-.075l-.55-.822v-.613a.132.132 0 00-.132-.133H1.236zm.131.266h2.03v.52a.132.132 0 00.021.073l.55.823v3.343l-3.175.002.002-3.357.55-.81a.132.132 0 00.022-.075v-.52z" overflow="visible" fill-rule="evenodd"/><path style="line-height:normal;text-indent:0;text-align:start;text-decoration-line:none;text-decoration-style:solid;text-decoration-color:#fff;text-transform:none;block-progression:tb;white-space:normal;isolation:auto;mix-blend-mode:normal;solid-color:#fff;solid-opacity:1" d="M2.9 5.69a.132.132 0 00-.103.062s-.069.114-.137.244a2.661 2.661 0 00-.096.2c-.027.064-.05.115-.05.193 0 .208.189.357.396.357.208 0 .397-.149.397-.357 0-.078-.024-.129-.051-.194a2.667 2.667 0 00-.096-.199c-.068-.13-.137-.244-.137-.244a.132.132 0 00-.123-.063zm.01.402l.016.027c.032.061.063.124.086.178.022.053.031.107.031.092 0 .041-.048.093-.133.093s-.133-.052-.133-.093c0 .015.01-.04.032-.092.022-.053.054-.117.086-.178.007-.015.008-.013.015-.027z" overflow="visible"/><path style="line-height:normal;text-indent:0;text-align:start;text-decoration-line:none;text-decoration-style:solid;text-decoration-color:#fff;text-transform:none;block-progression:tb;white-space:normal;isolation:auto;mix-blend-mode:normal;solid-color:#fff;solid-opacity:1" d="M1.246 3.637a.132.132 0 00-.101.203l.51.828v3.336a.132.132 0 10.263 0V4.63a.132.132 0 00-.02-.07L1.37 3.7a.132.132 0 00-.123-.064z" overflow="visible" fill-rule="evenodd"/><path style="line-height:normal;text-indent:0;text-align:start;text-decoration-line:none;text-decoration-style:solid;text-decoration-color:#fff;text-transform:none;block-progression:tb;white-space:normal;isolation:auto;mix-blend-mode:normal;solid-color:#fff;solid-opacity:1" d="M1.059 4.498v.264h3.043v-.264H1.059zM1.72 3.572v.264h1.852v-.264H1.721z" overflow="visible" fill-rule="evenodd"/><path d="M4.995 1.896c-.113.124.063.3.187.187L6.837.586c.321.38.488.872.447 1.371-.015.177.25.199.264.022A2.146 2.146 0 006.946.305a.133.133 0 00-.183-.007L5.005 1.886l-.01.01z" style="line-height:normal;text-indent:0;text-align:start;text-decoration-line:none;text-decoration-style:solid;text-decoration-color:#fff;text-transform:none;block-progression:tb;white-space:normal;isolation:auto;mix-blend-mode:normal;solid-color:#fff;solid-opacity:1" overflow="visible"/><path d="M6.456.633a.132.132 NaN 00-.002.187c.282.299.422.704.385 1.113a.132.132 NaN 10.264.023A1.701 1.701 0 006.646.638a.132.132 NaN 00-.19-.005z" style="line-height:normal;text-indent:0;text-align:start;text-decoration-line:none;text-decoration-style:solid;text-decoration-color:#fff;text-transform:none;block-progression:tb;white-space:normal;isolation:auto;mix-blend-mode:normal;solid-color:#fff;solid-opacity:1" overflow="visible"/><path style="line-height:normal;text-indent:0;text-align:start;text-decoration-line:none;text-decoration-style:solid;text-decoration-color:#fff;text-transform:none;block-progression:tb;white-space:normal;isolation:auto;mix-blend-mode:normal;solid-color:#fff;solid-opacity:1" d="M6.07 1.389a.132.132 0 00-.078.039l-.062.062a.133.133 0 10.187.188l.063-.063a.132.132 0 00-.11-.226zM6.482 1.236a.132.132 0 00-.091.229l.062.062a.133.133 0 10.188-.187l-.063-.063a.132.132 0 00-.096-.04zM6.275 1.709a.132.132 0 00-.093.228l.062.06a.132.132 0 10.188-.185l-.063-.062a.132.132 0 00-.094-.041zM4.156.928a.563.563 0 00-.277.279 1.784 1.784 0 00-.12.33 1.326 1.326 0 00-.054.447h.264c0-.196 0-.213.047-.377.027-.097.058-.2.1-.28.04-.082.087-.133.142-.155a.659.659 0 01.232.039c.101.036.184.082.184.082l.062-.117.063.117s.084-.046.185-.082a.651.651 0 01.233-.04c.055.023.101.074.142.155.041.08.07.184.098.281l.256-.07a1.782 1.782 0 00-.12-.33.559.559 0 00-.275-.28C5.163.864 5.017.92 4.895.964c-.088.031-.123.05-.159.068-.035-.018-.069-.037-.156-.068-.122-.044-.268-.1-.424-.035z" overflow="visible" fill-rule="evenodd"/><path style="line-height:normal;text-indent:0;text-align:start;text-decoration-line:none;text-decoration-style:solid;text-decoration-color:#fff;text-transform:none;block-progression:tb;white-space:normal;isolation:auto;mix-blend-mode:normal;solid-color:#fff;solid-opacity:1" d="M4.818.527a.132.132 0 00-.109.078s-.092.182-.121.326c-.029.143-.014.342-.014.342a.132.132 0 10.264-.01s-.002-.219.01-.279c.012-.062.101-.267.101-.267a.132.132 0 00-.13-.19z" overflow="visible" fill-rule="evenodd"/></g></svg>