<svg xmlns="http://www.w3.org/2000/svg" height="300" width="300" viewBox="0 0 100 100">
  <g fill="#05222f">
    <path d="M43.54 89.32c-6.855-2.386-12.183-7.608-14.286-13.999-1.008-3.064-1.04-3.881-1.04-26.478 0-17.74.055-21.61.314-22.23.653-1.563 2.293-2.166 3.789-1.393 1.362.705 1.358.663 1.358 12.166 0 11.162.049 11.708 1.103 12.272.765.41 1.784.284 2.468-.303l.638-.55.114-15.9c.127-17.812.022-16.781 1.78-17.52 1.133-.475 2.425-.047 3.161 1.048l.52.774v13.857c0 15.036-.02 14.807 1.245 15.382.328.15.75.272.938.272.707 0 1.643-.69 1.887-1.392.176-.503.253-5.697.253-17.083 0-17.658-.032-17.176 1.187-18.03.668-.468 2.105-.452 2.926.033 1.39.821 1.347.241 1.347 18.462v16.62l.545.633c.725.843 2.117.888 2.961.094l.574-.538.065-14.132c.061-13.38.087-14.17.494-14.84.863-1.426 2.37-1.826 3.737-.993 1.405.857 1.408.882 1.408 12.996v10.967l-.626 1.497-.625 1.497-.07 7.099c-.065 6.787-.087 7.105-.508 7.238-.242.077-1.389.76-2.548 1.518-2.479 1.62-5.854 4.925-7.049 6.9-1.103 1.823-2.012 4.607-2.165 6.628-.121 1.605-.107 1.664.573 2.343.725.726 1.406.862 2.41.48.783-.297 1.026-.848 1.282-2.905.32-2.567 1.39-4.61 3.595-6.866 1.697-1.736 4.395-3.676 6.784-4.877.64-.322 1.255-.77 1.364-.995.108-.224.25-3.838.312-8.03l.115-7.623.674-1.217c1.146-2.068 3.816-4.134 4.72-3.65.387.207.408 1.064.408 16.46 0 17.742-.006 17.84-1.34 21.486-.93 2.543-2.488 4.985-4.57 7.165-2.02 2.115-3.849 3.47-6.177 4.576-3.141 1.491-4.386 1.743-9.187 1.86l-4.323.105z" fill="#fff" stroke="#fff" stroke-width="1.8203151300000002" stroke-opacity=".984"/>
    <path d="M65.07 41.665c1.1 0 2-.9 2-2v-21.67c0-3.87-3.08-7.02-6.86-7.02-3.78 0-6.86 3.15-6.86 7.02 0 1.1.9 2 2 2s2-.9 2-2c0-1.67 1.28-3.02 2.86-3.02 1.58 0 2.86 1.36 2.86 3.02v21.67c0 1.11.89 2 2 2z"/>
    <path d="M45.61 46.565c1.1 0 2-.9 2-2v-31.9c0-1.67 1.28-3.03 2.86-3.03 1.58 0 2.86 1.36 2.86 3.03v31.9c0 1.1.9 2 2 2s2-.9 2-2v-31.9c0-3.87-3.08-7.03-6.86-7.03-3.78 0-6.86 3.15-6.86 7.03v31.9c0 1.1.9 2 2 2z"/>
    <path d="M35.89 30.535c1.1 0 2-.9 2-2v-10.46c0-1.67 1.29-3.03 2.86-3.03 1.57 0 2.86 1.36 2.86 3.03 0 1.1.9 2 2 2s2-.9 2-2c0-3.88-3.08-7.03-6.86-7.03-3.78 0-6.86 3.15-6.86 7.03v10.46c0 1.11.89 2 2 2z"/>
    <path d="M48.75 94.365c2.77 0 5.79-.27 6.28-.31l.2-.03c11.95-2.32 20.63-12.83 20.63-24.99v-29.98c0-1.72-.91-3.25-2.43-4.09-1.68-.93-3.84-.86-5.49.18l-2 1.38c-.06.04-.12.09-.17.13-2.61 2.26-4.11 5.29-4.11 8.31v11.73c-3.29 1.68-12.17 7.04-12.17 16.15 0 1.1.9 2 2 2s2-.9 2-2c0-8.33 10.81-12.99 10.92-13.03.29-.12.54-.31.75-.55.31-.36.5-.85.5-1.33v-12.97c0-1.83.96-3.72 2.65-5.22l1.83-1.27c.42-.26 1.01-.2 1.35-.02.32.18.36.39.36.59v29.98c0 10.21-7.27 19.05-17.3 21.04-2.58.23-7.1.46-8.62.11-10.47-2.45-17.79-11.14-17.79-21.15v-41.3c0-1.67 1.28-3.03 2.86-3.03 1.58 0 2.86 1.36 2.86 3.03v20.09c0 1.1.9 2 2 2s2-.9 2-2v-20.08c0-3.88-3.08-7.03-6.86-7.03-3.78 0-6.86 3.15-6.86 7.03v41.3c0 11.88 8.59 22.17 20.88 25.05.93.21 2.3.28 3.73.28z"/>
  </g>
</svg>
