<svg height='300px' width='300px'  fill="#000000" xmlns="http://www.w3.org/2000/svg" xmlns:xlink="http://www.w3.org/1999/xlink" version="1.1" x="0px" y="0px" viewBox="0 0 200 200" enable-background="new 0 0 200 200" xml:space="preserve"><metadata><?xpacket begin="&#65279;" id="W5M0MpCehiHzreSzNTczkc9d"?><x:xmpmeta xmlns:x="adobe:ns:meta/" x:xmptk="Adobe XMP Core 5.3-c011 66.145661, 2012/02/06-14:56:27        "></x:xmpmeta><?xpacket end="w"?></metadata><path d="M199.271,68.246c0-16.021-6.241-31.083-17.572-42.413c-11.33-11.33-26.394-17.57-42.415-17.57  c-14.44,0-28.1,5.068-38.949,14.364C89.577,13.668,76.136,8.785,61.997,8.785c-16.008,0-31.058,6.234-42.379,17.554  c-22.921,22.921-23.305,60.373-0.974,83.789c0.141,0.188,0.295,0.366,0.463,0.533l77.766,77.764  c0.938,0.938,2.209,1.465,3.536,1.465c1.327,0,2.598-0.527,3.536-1.465l0.579-0.579c0.023-0.022,0.052-0.038,0.075-0.062  l16.897-16.896c0.058-0.058,0.105-0.121,0.162-0.18l60.041-60.047C193.031,99.332,199.271,84.268,199.271,68.246z M174.628,32.904  c9.442,9.44,14.643,21.992,14.643,35.342c0.001,12.666-4.687,24.607-13.23,33.862c-0.633-3.887-2.438-7.475-5.277-10.313  l-46.557-46.561c-1.953-1.953-5.12-1.953-7.071,0c-0.032,0.033-0.055,0.072-0.086,0.105c-0.037,0.036-0.081,0.06-0.118,0.097  L88.088,74.28c-3.482,3.483-9.149,3.483-12.632,0.001c-1.687-1.687-2.616-3.93-2.616-6.316c0-2.386,0.93-4.629,2.617-6.316  L104.3,32.805c0.281-0.282,0.511-0.594,0.711-0.918c9.309-8.79,21.415-13.624,34.272-13.624  C152.634,18.263,165.187,23.463,174.628,32.904z M100.408,177.818L89.35,166.761l14.01-14.01c1.477-1.479,3.44-2.293,5.53-2.293  c0,0,0,0,0.001,0c2.089,0,4.053,0.814,5.531,2.294c2.992,2.992,3.041,7.821,0.166,10.884L100.408,177.818z M60.009,109.405  l-14.007,14.009L34.937,112.35l14.01-14.01c1.478-1.479,3.441-2.293,5.531-2.293c0,0,0.001,0,0.001,0  c2.088,0,4.052,0.814,5.531,2.295c1.479,1.477,2.292,3.441,2.292,5.531S61.489,107.926,60.009,109.405z M67.085,116.476  c1.477-1.479,3.441-2.292,5.531-2.292c2.09,0,4.054,0.813,5.534,2.294c1.479,1.478,2.292,3.441,2.292,5.53  c0,2.09-0.814,4.055-2.294,5.534l-14.008,14.01l-11.066-11.066L67.085,116.476z M85.219,134.614  c1.479-1.479,3.443-2.293,5.533-2.293c2.09,0,4.056,0.814,5.534,2.292c3.049,3.052,3.049,8.017,0.001,11.067l-14.011,14.008  l-11.066-11.066L85.219,134.614z M26.688,33.411c9.432-9.431,21.972-14.625,35.309-14.625c11.47,0,22.39,3.857,31.231,10.949  L68.385,54.578c-3.575,3.576-5.545,8.33-5.545,13.386c0,5.058,1.969,9.813,5.546,13.389c3.691,3.689,8.538,5.534,13.386,5.534  c4.849,0,9.697-1.846,13.388-5.537l25.508-25.511l43.023,43.026c1.688,1.687,2.616,3.931,2.616,6.317  c0,2.386-0.929,4.629-2.614,6.314c-3.483,3.484-9.151,3.481-12.633,0.001l-37.789-37.792c-0.334-0.334-0.713-0.59-1.105-0.81  c-1.95-1.374-4.66-1.2-6.404,0.544c-1.953,1.953-1.953,5.119,0,7.071l37.786,37.788c1.688,1.687,2.617,3.931,2.617,6.316  s-0.929,4.629-2.617,6.317c-1.686,1.687-3.927,2.615-6.313,2.615h-0.001c-2.387-0.001-4.63-0.93-6.317-2.617L93.69,93.704  c-0.002-0.001-0.004-0.003-0.005-0.004l-0.555-0.555c-1.952-1.951-5.117-1.952-7.071,0c-1.953,1.953-1.953,5.119,0,7.071  l19.593,19.593l18.753,18.754c3.289,3.29,3.468,8.524,0.544,12.03c-0.847-1.774-1.985-3.442-3.452-4.91  c-3.366-3.369-7.843-5.225-12.604-5.225c-0.001,0-0.002,0-0.003,0c-0.113,0-0.224,0.015-0.336,0.017  c0.085-4.673-1.639-9.373-5.194-12.931c-3.367-3.368-7.844-5.223-12.605-5.223c0,0-0.001,0-0.002,0  c-0.109,0-0.216,0.014-0.325,0.016c0.002-0.11,0.016-0.219,0.016-0.329c0-4.762-1.855-9.238-5.222-12.602  c-3.366-3.368-7.842-5.223-12.604-5.223c-0.11,0-0.219,0.014-0.329,0.016c0.002-0.109,0.016-0.217,0.016-0.327  c0-4.763-1.855-9.239-5.221-12.603c-3.366-3.369-7.841-5.224-12.603-5.224c-0.001,0-0.002,0-0.003,0  c-4.762,0-9.238,1.856-12.602,5.224l-14.008,14.008l-1.253-1.253c-0.112-0.144-0.232-0.281-0.361-0.413  C7.268,84.128,7.463,52.635,26.688,33.411z"></path></svg>