<svg xmlns="http://www.w3.org/2000/svg" height="300" width="300" viewBox="0 0 100 100"><path d="M65.08 41.66c1.1 0 2-.9 2-2V17.99c0-3.87-3.08-7.02-6.86-7.02-3.78 0-6.86 3.15-6.86 7.02 0 1.1.9 2 2 2s2-.9 2-2c0-1.67 1.28-3.02 2.86-3.02 1.58 0 2.86 1.36 2.86 3.02v21.67c0 1.11.89 2 2 2z"/><path d="M45.62 46.56c1.1 0 2-.9 2-2v-31.9c0-1.67 1.28-3.03 2.86-3.03 1.58 0 2.86 1.36 2.86 3.03v31.9c0 1.1.9 2 2 2s2-.9 2-2v-31.9c0-3.87-3.08-7.03-6.86-7.03-3.78 0-6.86 3.15-6.86 7.03v31.9c0 1.1.9 2 2 2z"/><path d="M35.9 30.53c1.1 0 2-.9 2-2V18.07c0-1.67 1.29-3.03 2.86-3.03 1.57 0 2.86 1.36 2.86 3.03 0 1.1.9 2 2 2s2-.9 2-2c0-3.88-3.08-7.03-6.86-7.03-3.78 0-6.86 3.15-6.86 7.03v10.46c0 1.11.89 2 2 2z"/><path d="M48.76 94.36c2.77 0 5.79-.27 6.28-.31l.2-.03c11.95-2.32 20.63-12.83 20.63-24.99V39.05c0-1.72-.91-3.25-2.43-4.09-1.68-.93-3.84-.86-5.49.18l-2 1.38c-.06.04-.12.09-.17.13-2.61 2.26-4.11 5.29-4.11 8.31v11.73c-3.29 1.68-12.17 7.04-12.17 16.15 0 1.1.9 2 2 2s2-.9 2-2c0-8.33 10.81-12.99 10.92-13.03.29-.12.54-.31.75-.55.31-.36.5-.85.5-1.33V44.96c0-1.83.96-3.72 2.65-5.22l1.83-1.27c.42-.26 1.01-.2 1.35-.02.32.18.36.39.36.59v29.98c0 10.21-7.27 19.05-17.3 21.04-2.58.23-7.1.46-8.62.11-10.47-2.45-17.79-11.14-17.79-21.15v-41.3c0-1.67 1.28-3.03 2.86-3.03 1.58 0 2.86 1.36 2.86 3.03v20.09c0 1.1.9 2 2 2s2-.9 2-2V27.73c0-3.88-3.08-7.03-6.86-7.03-3.78 0-6.86 3.15-6.86 7.03v41.3c0 11.88 8.59 22.17 20.88 25.05.93.21 2.3.28 3.73.28z"/></svg>